<svg width="90" height="32" viewBox="0 0 90 32" fill="none" xmlns="http://www.w3.org/2000/svg">
<path d="M10.8621 0.456055H16.5142L27.0513 31.4561H21.3185L18.6539 23.7279H8.64168L6.0175 31.4561H0.284668L10.8621 0.456055ZM17.6446 19.4927L13.6882 6.69972L9.57024 19.4927H17.6446Z" fill="white"/>
<path d="M33.1828 0.456055L40.2883 11.8955L47.3534 0.456055H53.4092L43.4777 16.1744L53.0862 31.4561H47.0304L40.2883 20.4532L33.5058 31.4561H27.4096L37.0182 16.1744L27.0867 0.456055H33.1828Z" fill="white"/>
<path d="M56.2954 31.4561V0.456055H61.8668V31.4561H56.2954Z" fill="#EC7979"/>
<path d="M89.2847 5.73915H80.1203V31.4561H74.5893V5.73915H65.4248V0.456055H89.2847V5.73915Z" fill="#EC7979"/>
</svg>
