<svg width="194" height="40" viewBox="0 0 194 40" fill="none" xmlns="http://www.w3.org/2000/svg">
<path d="M0 1.5H58.0032C58.0667 6.45142 59.0725 11.347 60.9688 15.9247C62.9287 20.6564 65.8013 24.9557 69.4229 28.5771C73.0444 32.1986 77.3438 35.0714 82.0754 37.0312C86.8071 38.9912 91.8784 40 97 40C102.122 40 107.193 38.9912 111.925 37.0312C116.656 35.0714 120.956 32.1986 124.577 28.5771C128.199 24.9557 131.071 20.6564 133.031 15.9247C134.927 11.347 135.933 6.45142 135.997 1.5H194V0.5H135V1H134.958C134.958 5.98474 133.976 10.9207 132.069 15.5259C130.161 20.1311 127.365 24.3157 123.84 27.8403C120.316 31.3651 116.131 34.161 111.526 36.0686C106.921 37.9762 101.985 38.958 97 38.958C92.0154 38.958 87.0793 37.9762 82.4741 36.0686C77.8689 34.161 73.6843 31.3651 70.1597 27.8403C66.635 24.3157 63.8389 20.1311 61.9314 15.5259C60.0239 10.9207 59.042 5.98474 59.042 1H59V0.5H0V1.5Z" fill="white"/>
</svg>
